<svg width="27" height="16" viewBox="0 0 27 16" fill="none" xmlns="http://www.w3.org/2000/svg">
<path d="M13.6667 3.625C12.8015 3.625 11.9556 3.88159 11.2361 4.36232C10.5167 4.84305 9.95591 5.52633 9.62477 6.32576C9.29364 7.12519 9.207 8.00485 9.37581 8.85352C9.54462 9.70219 9.9613 10.4817 10.5732 11.0936C11.185 11.7054 11.9646 12.1221 12.8132 12.2909C13.6619 12.4597 14.5416 12.3731 15.341 12.042C16.1404 11.7108 16.8237 11.1501 17.3044 10.4306C17.7852 9.71115 18.0417 8.86529 18.0417 8C18.0417 6.83968 17.5808 5.72688 16.7603 4.90641C15.9399 4.08594 14.8271 3.625 13.6667 3.625ZM13.6667 10.625C13.1476 10.625 12.6401 10.471 12.2084 10.1826C11.7767 9.89417 11.4402 9.4842 11.2416 9.00454C11.0429 8.52489 10.9909 7.99709 11.0922 7.48789C11.1935 6.97869 11.4435 6.51096 11.8106 6.14384C12.1777 5.77673 12.6454 5.52672 13.1546 5.42544C13.6638 5.32415 14.1916 5.37614 14.6713 5.57482C15.1509 5.7735 15.5609 6.10995 15.8494 6.54163C16.1378 6.97331 16.2917 7.48082 16.2917 8C16.2917 8.69619 16.0152 9.36387 15.5229 9.85616C15.0306 10.3484 14.3629 10.625 13.6667 10.625ZM25.9167 0.125H1.41675C1.18468 0.125 0.962124 0.217187 0.79803 0.381282C0.633935 0.545376 0.541748 0.767936 0.541748 1V15C0.541748 15.2321 0.633935 15.4546 0.79803 15.6187C0.962124 15.7828 1.18468 15.875 1.41675 15.875H25.9167C26.1488 15.875 26.3714 15.7828 26.5355 15.6187C26.6996 15.4546 26.7917 15.2321 26.7917 15V1C26.7917 0.767936 26.6996 0.545376 26.5355 0.381282C26.3714 0.217187 26.1488 0.125 25.9167 0.125ZM20.8472 14.125H6.48628C6.1925 13.1314 5.65482 12.2272 4.9222 11.4945C4.18958 10.7619 3.28531 10.2242 2.29175 9.93047V6.06953C3.28531 5.77576 4.18958 5.23807 4.9222 4.50545C5.65482 3.77283 6.1925 2.86856 6.48628 1.875H20.8472C21.141 2.86856 21.6787 3.77283 22.4113 4.50545C23.1439 5.23807 24.0482 5.77576 25.0417 6.06953V9.93047C24.0482 10.2242 23.1439 10.7619 22.4113 11.4945C21.6787 12.2272 21.141 13.1314 20.8472 14.125ZM25.0417 4.21234C23.9922 3.76105 23.1557 2.92452 22.7044 1.875H25.0417V4.21234ZM4.62909 1.875C4.1778 2.92452 3.34127 3.76105 2.29175 4.21234V1.875H4.62909ZM2.29175 11.7877C3.34127 12.2389 4.1778 13.0755 4.62909 14.125H2.29175V11.7877ZM22.7044 14.125C23.1557 13.0755 23.9922 12.2389 25.0417 11.7877V14.125H22.7044Z" fill="white"/>
</svg>

